<svg width="500" height="500" viewBox="0 0 500 500" fill="none" xmlns="http://www.w3.org/2000/svg">
<g clip-path="url(#clip0_1407_2429)">
<path d="M250 500C388.071 500 500 388.071 500 250C500 111.929 388.071 0 250 0C111.929 0 0 111.929 0 250C0 388.071 111.929 500 250 500Z" fill="#080808"/>
<path d="M193.214 385V288.028H264.684L326.269 385H365.045L299.658 281.563C308.275 279.282 316.068 275.606 323.038 270.535C330.007 265.465 335.963 259.38 340.905 252.282C345.847 245.183 349.649 237.261 352.31 228.514C354.971 219.768 356.302 210.704 356.302 201.324C356.302 190.676 354.274 180.218 350.219 169.951C346.164 159.683 340.525 150.43 333.302 142.19C326.079 133.951 317.462 127.359 307.452 122.416C297.441 117.472 286.48 115 274.568 115H159V385H193.214ZM274.948 257.606H193.214V145.423H272.667C279.257 145.423 285.529 146.88 291.485 149.796C297.441 152.711 302.636 156.768 307.071 161.965C311.507 167.162 315.055 173.12 317.716 179.838C320.377 186.556 321.707 193.718 321.707 201.324C321.707 208.676 320.567 215.775 318.286 222.62C316.005 229.465 312.837 235.486 308.782 240.683C304.727 245.88 299.848 250 294.146 253.042C288.444 256.085 282.044 257.606 274.948 257.606Z" fill="#E0E0E0"/>
</g>
<defs>
<clipPath id="clip0_1407_2429">
<rect width="500" height="500" fill="white"/>
</clipPath>
</defs>
</svg>
